<svg width="956" height="548" viewBox="0 0 956 548" fill="none" xmlns="http://www.w3.org/2000/svg">
<path d="M901.767 195.874C890.106 182.962 764.512 80.8772 742.064 74.2775C732.296 71.4416 722.475 69.6665 712.325 68.923C665.384 65.4858 613.601 80.1991 580.969 115.369C578.127 118.434 576.499 120.185 576.499 120.185C576.499 120.185 577.715 118.116 579.842 114.495C589.906 97.5264 604.569 82.7903 620.269 70.9916C627.505 65.5553 635.169 60.6882 643.172 56.4608C645.366 55.3016 665.772 44.2764 667.144 45.7218C667.141 45.7187 656.004 33.974 656.004 33.974C638.094 16.0609 618.715 0.620728 592.324 0.620728C559.614 0.620728 531.662 20.901 520.29 49.5624C510.641 42.3904 495.291 37.7503 477.998 37.7503C460.705 37.7503 445.356 42.3904 435.706 49.5624C424.334 20.9 396.382 0.620728 363.672 0.620728C337.281 0.620728 317.902 16.0609 299.991 33.973C299.991 33.973 288.854 45.7177 288.851 45.7208C290.221 44.2744 310.628 55.3005 312.823 56.4598C320.826 60.6871 328.489 65.5542 335.726 70.9906C351.429 82.7882 366.089 97.5253 376.153 114.494C378.28 118.116 379.495 120.184 379.495 120.184C379.495 120.184 377.872 118.433 375.027 115.368C342.395 80.1981 290.613 65.4847 243.672 68.922C233.522 69.6654 223.701 71.4406 213.933 74.2764C191.483 80.8762 65.8895 182.961 54.2298 195.873C20.5271 233.195 0 282.644 0 336.893C0 453.139 94.2377 547.379 210.486 547.379C316.829 547.379 404.735 468.512 418.949 366.08C435.521 378.154 455.927 385.283 478 385.283C500.074 385.283 520.479 378.154 537.051 366.08C551.265 468.511 639.17 547.379 745.514 547.379C861.762 547.379 956 453.139 956 336.893C955.998 282.644 935.471 233.197 901.767 195.874ZM205.817 469.095C135.713 469.095 78.8816 412.263 78.8816 342.159C78.8816 272.056 135.713 215.225 205.817 215.225C275.922 215.225 332.753 272.056 332.753 342.159C332.753 412.263 275.922 469.095 205.817 469.095ZM477.998 330.235C459.507 330.235 444.517 315.245 444.517 296.754C444.517 278.264 459.507 263.275 477.998 263.275C496.489 263.275 511.479 278.265 511.479 296.754C511.479 315.245 496.489 330.235 477.998 330.235ZM750.179 469.095C680.074 469.095 623.243 412.263 623.243 342.159C623.243 272.056 680.074 215.225 750.179 215.225C820.283 215.225 877.114 272.056 877.114 342.159C877.114 412.263 820.283 469.095 750.179 469.095Z" fill="black"/>
<rect x="106" y="354" width="43" height="117" fill="black"/>
<rect x="155" y="283" width="43" height="188" fill="black"/>
<rect x="204" y="317" width="43" height="154" fill="black"/>
<rect x="253" y="252" width="43" height="219" fill="black"/>
<path d="M677 286L726.514 302.235" stroke="black" stroke-width="15"/>
<path d="M676.479 286.403L657.325 248" stroke="black" stroke-width="15"/>
<line x1="732" y1="303.308" x2="757" y2="368.308" stroke="black" stroke-width="15"/>
<line x1="751.984" y1="361.767" x2="813.984" y2="378.767" stroke="black" stroke-width="15"/>
<line x1="817.103" y1="381.641" x2="862.103" y2="444.641" stroke="black" stroke-width="15"/>
<circle cx="734.5" cy="305.5" r="15.5" fill="black"/>
<circle cx="682.5" cy="288.5" r="15.5" fill="black"/>
<circle cx="759.5" cy="365.5" r="15.5" fill="black"/>
<circle cx="818.5" cy="382.5" r="15.5" fill="black"/>
</svg>
