<?xml version="1.0" encoding="UTF-8"?>
<svg width="100px" height="80px" viewBox="0 0 100 80" version="1.1" xmlns="http://www.w3.org/2000/svg" xmlns:xlink="http://www.w3.org/1999/xlink">
    <title>noun_Barking Dog_751</title>
    <g id="Page-1" stroke="none" stroke-width="1" fill="none" fill-rule="evenodd">
        <g id="noun_Barking-Dog_751" fill="#616161" fill-rule="nonzero">
            <path d="M45.811,30.889 L11.669,30.889 L5.186,27.212 C3.518,26.266 1.399,26.851 0.453,28.52 C-0.493,30.188 0.093,32.308 1.761,33.254 L9.723,37.768 L9.723,73.946 C9.723,77.013 12.21,79.501 15.278,79.501 C18.347,79.501 20.834,77.014 20.834,73.946 L20.834,59.292 L31.346,76.797 C31.346,76.8 31.347,76.802 31.349,76.804 C32.927,79.434 36.34,80.287 38.971,78.706 C41.601,77.126 42.454,73.714 40.875,71.083 L31.749,55.89 L52.778,55.89 L52.778,73.946 C52.778,77.013 55.266,79.501 58.334,79.501 C61.402,79.501 63.891,77.014 63.891,73.946 L63.891,55.762 C64.697,55.474 65.279,54.711 65.279,53.806 L65.279,39.223 L65.306,39.193 L45.811,30.889 Z" id="Path"></path>
            <rect id="Rectangle" x="86.11" y="22.556" width="13.89" height="2.777"></rect>
            <rect id="Rectangle" transform="translate(90.095766, 14.189058) rotate(-29.854323) translate(-90.095766, -14.189058) " x="83.1507168" y="12.8005484" width="13.8900981" height="2.77701962"></rect>
            <rect id="Rectangle" transform="translate(83.055414, 6.714520) rotate(-60.225271) translate(-83.055414, -6.714520) " x="76.1107904" y="5.3254955" width="13.8892469" height="2.77804939"></rect>
            <path d="M70.833,25.333 L76.39,15.611 L69.444,4.5 L56.847,18.58 L50,17 L51.804,24.217 L48.762,27.617 L68.251,35.919 L77.777,25.333 L70.833,25.333 Z M63.194,21.167 C62.044,21.167 61.11,20.235 61.11,19.084 C61.11,17.933 62.044,17.001 63.194,17.001 C64.344,17.001 65.277,17.933 65.277,19.084 C65.277,20.234 64.345,21.167 63.194,21.167 Z" id="Shape"></path>
        </g>
    </g>
</svg>